<svg width="375" height="138" viewBox="0 0 375 138" fill="none" xmlns="http://www.w3.org/2000/svg">
<path d="M20.3705 114.483L37.1847 114.483L37.1847 135.204C32.7758 137.068 27.8157 138 22.3046 138C15.1089 138 9.58732 135.981 5.73992 131.942C1.91331 127.883 0 122.146 0 114.732C0 110.113 0.946254 106.023 2.83876 102.461C4.75207 98.8778 7.47645 96.1129 11.0119 94.1661C14.5682 92.2193 18.6443 91.2459 23.2404 91.2459C28.2109 91.2459 32.6718 92.1572 36.6232 93.9797L35.3442 96.8378C31.3928 95.0152 27.2958 94.104 23.0533 94.104C17.043 94.104 12.2701 95.9576 8.73466 99.6648C5.22 103.351 3.46267 108.332 3.46267 114.607C3.46267 121.442 5.13681 126.588 8.48509 130.047C11.8334 133.485 16.7518 135.204 23.2404 135.204C27.4414 135.204 31.008 134.614 33.9404 133.433V117.465L20.3705 117.465V114.483Z" fill="#111111"/>
<path d="M92.7234 117.59V137.379H89.5415V91.9604H100.397C106.054 91.9604 110.234 93.0063 112.938 95.0981C115.642 97.1691 116.993 100.296 116.993 104.48C116.993 107.524 116.182 110.093 114.56 112.184C112.959 114.276 110.515 115.778 107.229 116.689L119.614 137.379H115.808L104.047 117.59H92.7234ZM92.7234 114.856H101.427C105.274 114.856 108.259 114.007 110.38 112.309C112.501 110.59 113.562 108.063 113.562 104.728C113.562 101.27 112.522 98.7535 110.442 97.1795C108.363 95.6055 104.973 94.8185 100.273 94.8185H92.7234V114.856Z" fill="#111111"/>
<path d="M206.548 114.607C206.548 121.815 204.739 127.52 201.12 131.725C197.502 135.908 192.51 138 186.146 138C179.803 138 174.823 135.908 171.204 131.725C167.585 127.52 165.776 121.794 165.776 114.545C165.776 107.317 167.596 101.632 171.235 97.4902C174.895 93.3273 179.887 91.2459 186.209 91.2459C192.573 91.2459 197.553 93.3377 201.151 97.5212C204.749 101.684 206.548 107.379 206.548 114.607ZM169.239 114.607C169.239 121.111 170.694 126.143 173.606 129.705C176.518 133.247 180.698 135.018 186.146 135.018C191.637 135.018 195.827 133.257 198.718 129.736C201.63 126.216 203.085 121.173 203.085 114.607C203.085 108.063 201.63 103.051 198.718 99.5716C195.827 96.0715 191.658 94.3214 186.209 94.3214C180.781 94.3214 176.59 96.0818 173.637 99.6026C170.705 103.123 169.239 108.125 169.239 114.607Z" fill="#111111"/>
<path d="M291.085 91.9604V121.349C291.085 126.568 289.567 130.648 286.531 133.589C283.494 136.53 279.262 138 273.834 138C268.552 138 264.424 136.53 261.45 133.589C258.497 130.627 257.02 126.506 257.02 121.224V91.9604H260.233V121.349C260.233 125.719 261.45 129.126 263.883 131.569C266.316 133.993 269.758 135.204 274.209 135.204C278.555 135.204 281.924 134.013 284.316 131.632C286.708 129.229 287.903 125.905 287.903 121.659V91.9604H291.085Z" fill="#111111"/>
<path d="M371.92 105.008C371.92 109.399 370.423 112.764 367.428 115.104C364.433 117.445 360.191 118.615 354.7 118.615H347.65V137.379H344.468V91.9604H355.636C366.492 91.9604 371.92 96.3097 371.92 105.008ZM347.65 115.881H353.92C359.057 115.881 362.769 115.042 365.057 113.365C367.345 111.667 368.488 108.922 368.488 105.132C368.488 101.632 367.407 99.0434 365.244 97.3659C363.081 95.6676 359.733 94.8185 355.199 94.8185H347.65V115.881Z" fill="#111111"/>
<path d="M4.0727e-06 0.275185L21.3201 0.275185C31.0352 0.275185 38.0795 1.63582 42.4528 4.3571C46.8574 7.0478 49.0597 11.3437 49.0597 17.2449C49.0597 21.2504 48.0913 24.5373 46.1546 27.1057C44.249 29.6741 41.7031 31.2182 38.5168 31.738V32.1967C42.8589 33.1445 45.9828 34.9179 47.8883 37.5169C49.8251 40.1159 50.7935 43.571 50.7935 47.8822C50.7935 53.9974 48.5287 58.7673 43.9991 62.1918C39.5008 65.6163 33.3781 67.3286 25.631 67.3286L4.0727e-06 67.3286L4.0727e-06 0.275185ZM14.5258 26.8305L22.9601 26.8305C26.8962 26.8305 29.7388 26.2343 31.4882 25.0418C33.2688 23.8494 34.1591 21.8772 34.1591 19.1254C34.1591 16.557 33.1907 14.7224 31.2539 13.6217C29.3484 12.4903 26.3183 11.9247 22.1636 11.9247L14.5258 11.9247V26.8305ZM14.5258 38.1131L14.5258 55.5874H23.991C27.9895 55.5874 30.9415 54.8383 32.8471 53.34C34.7526 51.8418 35.7054 49.5486 35.7054 46.4604C35.7054 40.8956 31.6444 38.1131 23.5224 38.1131H14.5258Z" fill="#111111"/>
<path d="M104.445 67.3286L99.4783 51.3679L74.5033 51.3679L69.5364 67.3286H53.886L78.0645 0L95.8234 0L120.096 67.3286H104.445ZM96.0109 39.4432C91.4188 24.9807 88.8261 16.8016 88.2325 14.9059C87.6702 13.0101 87.2641 11.5119 87.0142 10.4112C85.9834 14.3249 83.0314 24.0023 78.1582 39.4432L96.0109 39.4432Z" fill="#111111"/>
<path d="M184.525 0.275185V43.6627C184.525 48.616 183.384 52.9578 181.104 56.6881C178.855 60.4184 175.59 63.2773 171.311 65.2647C167.031 67.2522 161.97 68.2459 156.129 68.2459C147.32 68.2459 140.479 66.0444 135.605 61.6415C130.732 57.2079 128.296 51.1538 128.296 43.4792V0.275185L142.775 0.275185V41.3236C142.775 46.491 143.837 50.2824 145.961 52.6979C148.085 55.1135 151.599 56.3212 156.504 56.3212C161.252 56.3212 164.688 55.1135 166.812 52.6979C168.968 50.2518 170.046 46.4298 170.046 41.2319V0.275185L184.525 0.275185Z" fill="#111111"/>
<path d="M242.3 67.3286L237.333 51.3679L212.358 51.3679L207.391 67.3286H191.741L215.919 0L233.678 0L257.95 67.3286H242.3ZM233.865 39.4432C229.273 24.9807 226.681 16.8016 226.087 14.9059C225.525 13.0101 225.119 11.5119 224.869 10.4112C223.838 14.3249 220.886 24.0023 216.013 39.4432H233.865Z" fill="#111111"/>
<path d="M281.145 30.041L285.83 30.041C290.422 30.041 293.812 29.2919 295.998 27.7937C298.185 26.2955 299.278 23.9411 299.278 20.7306C299.278 17.5507 298.154 15.2881 295.905 13.9427C293.687 12.5974 290.235 11.9247 285.549 11.9247H281.145V30.041ZM281.145 41.5988V67.3286L266.619 67.3286V0.275185L286.58 0.275185C295.889 0.275185 302.777 1.94158 307.244 5.27438C311.711 8.5766 313.945 13.6064 313.945 20.3637C313.945 24.308 312.836 27.8243 310.618 30.9125C308.4 33.9701 305.261 36.3703 301.2 38.1131C311.508 53.1872 318.224 62.9256 321.348 67.3286H305.229L288.876 41.5988H281.145Z" fill="#111111"/>
<path d="M356.398 67.3286H341.872V12.1081L323.269 12.1081V0.275185L375 0.275185V12.1081L356.398 12.1081V67.3286Z" fill="#111111"/>
</svg>
