<?xml version="1.0" encoding="UTF-8" standalone="no"?>
<!DOCTYPE svg PUBLIC "-//W3C//DTD SVG 1.1//EN"
 "http://www.w3.org/Graphics/SVG/1.1/DTD/svg11.dtd">
<!-- Generated by graphviz version 2.40.1 (20161225.0304)
 -->
<!-- Pages: 1 -->
<svg width="369pt" height="666pt"
 viewBox="0.00 0.00 369.13 665.60" xmlns="http://www.w3.org/2000/svg" xmlns:xlink="http://www.w3.org/1999/xlink">
<g id="graph0" class="graph" transform="scale(1 1) rotate(0) translate(4 661.6)">
<polygon fill="#ffffff" stroke="transparent" points="-4,4 -4,-661.6 365.125,-661.6 365.125,4 -4,4"/>
<!-- Start[1] -->
<g id="node1" class="node">
<title>Start[1]</title>
<ellipse fill="none" stroke="#000000" cx="237.125" cy="-639.6" rx="40.5635" ry="18"/>
<text text-anchor="middle" x="237.125" y="-635.4" font-family="Times,serif" font-size="14.00" fill="#000000">Start[1]</text>
</g>
<!-- Device on[199999] -->
<g id="node2" class="node">
<title>Device on[199999]</title>
<ellipse fill="none" stroke="#000000" cx="237.125" cy="-550.8" rx="86" ry="18"/>
<text text-anchor="middle" x="237.125" y="-546.6" font-family="Times,serif" font-size="14.00" fill="#000000">Device on[199999]</text>
</g>
<!-- Start[1]&#45;&gt;Device on[199999] -->
<g id="edge8" class="edge">
<title>Start[1]&#45;&gt;Device on[199999]</title>
<path fill="none" stroke="#000000" d="M237.125,-621.2006C237.125,-609.0949 237.125,-593.0076 237.125,-579.2674"/>
<polygon fill="#000000" stroke="#000000" points="240.6251,-578.872 237.125,-568.872 233.6251,-578.8721 240.6251,-578.872"/>
<text text-anchor="middle" x="240.625" y="-591" font-family="Times,serif" font-size="14.00" fill="#000000">1</text>
</g>
<!-- Device preparing for work[199999] -->
<g id="node3" class="node">
<title>Device preparing for work[199999]</title>
<ellipse fill="none" stroke="#000000" cx="149.125" cy="-462" rx="149.2501" ry="18"/>
<text text-anchor="middle" x="149.125" y="-457.8" font-family="Times,serif" font-size="14.00" fill="#000000">Device preparing for work[199999]</text>
</g>
<!-- Device on[199999]&#45;&gt;Device preparing for work[199999] -->
<g id="edge9" class="edge">
<title>Device on[199999]&#45;&gt;Device preparing for work[199999]</title>
<path fill="none" stroke="#000000" d="M219.3169,-532.83C206.3156,-519.7105 188.5173,-501.7504 174.0966,-487.1986"/>
<polygon fill="#000000" stroke="#000000" points="176.4317,-484.5826 166.9067,-479.9433 171.4596,-489.51 176.4317,-484.5826"/>
<text text-anchor="middle" x="222.125" y="-502.2" font-family="Times,serif" font-size="14.00" fill="#000000">100000</text>
</g>
<!-- Preparing complete[199999] -->
<g id="node4" class="node">
<title>Preparing complete[199999]</title>
<ellipse fill="none" stroke="#000000" cx="149.125" cy="-373.2" rx="122" ry="18"/>
<text text-anchor="middle" x="149.125" y="-369" font-family="Times,serif" font-size="14.00" fill="#000000">Preparing complete[199999]</text>
</g>
<!-- Device preparing for work[199999]&#45;&gt;Preparing complete[199999] -->
<g id="edge4" class="edge">
<title>Device preparing for work[199999]&#45;&gt;Preparing complete[199999]</title>
<path fill="none" stroke="#000000" d="M149.125,-443.6006C149.125,-431.4949 149.125,-415.4076 149.125,-401.6674"/>
<polygon fill="#000000" stroke="#000000" points="152.6251,-401.272 149.125,-391.272 145.6251,-401.2721 152.6251,-401.272"/>
<text text-anchor="middle" x="170.125" y="-413.4" font-family="Times,serif" font-size="14.00" fill="#000000">100000</text>
</g>
<!-- Starting work[799999] -->
<g id="node5" class="node">
<title>Starting work[799999]</title>
<ellipse fill="none" stroke="#000000" cx="149.125" cy="-284.4" rx="99.5" ry="18"/>
<text text-anchor="middle" x="149.125" y="-280.2" font-family="Times,serif" font-size="14.00" fill="#000000">Starting work[799999]</text>
</g>
<!-- Preparing complete[199999]&#45;&gt;Starting work[799999] -->
<g id="edge2" class="edge">
<title>Preparing complete[199999]&#45;&gt;Starting work[799999]</title>
<path fill="none" stroke="#000000" d="M149.125,-354.8006C149.125,-342.6949 149.125,-326.6076 149.125,-312.8674"/>
<polygon fill="#000000" stroke="#000000" points="152.6251,-312.472 149.125,-302.472 145.6251,-312.4721 152.6251,-312.472"/>
<text text-anchor="middle" x="170.125" y="-324.6" font-family="Times,serif" font-size="14.00" fill="#000000">100000</text>
</g>
<!-- Work complete[799999] -->
<g id="node6" class="node">
<title>Work complete[799999]</title>
<ellipse fill="none" stroke="#000000" cx="192.125" cy="-195.6" rx="106.4699" ry="18"/>
<text text-anchor="middle" x="192.125" y="-191.4" font-family="Times,serif" font-size="14.00" fill="#000000">Work complete[799999]</text>
</g>
<!-- Starting work[799999]&#45;&gt;Work complete[799999] -->
<g id="edge3" class="edge">
<title>Starting work[799999]&#45;&gt;Work complete[799999]</title>
<path fill="none" stroke="#000000" d="M140.1168,-266.408C136.1159,-255.7663 133.4484,-242.3181 139.125,-231.6 141.5678,-226.9877 144.8957,-222.8567 148.7021,-219.1856"/>
<polygon fill="#000000" stroke="#000000" points="151.0607,-221.7762 156.5049,-212.687 146.5809,-216.3973 151.0607,-221.7762"/>
<text text-anchor="middle" x="160.125" y="-235.8" font-family="Times,serif" font-size="14.00" fill="#000000">400000</text>
</g>
<!-- Work complete[799999]&#45;&gt;Starting work[799999] -->
<g id="edge5" class="edge">
<title>Work complete[799999]&#45;&gt;Starting work[799999]</title>
<path fill="none" stroke="#000000" d="M190.6641,-213.9696C189.2604,-224.4928 186.5104,-237.6928 181.125,-248.4 179.4083,-251.8131 177.2852,-255.1545 174.9553,-258.3412"/>
<polygon fill="#000000" stroke="#000000" points="172.0315,-256.3895 168.4425,-266.358 177.4645,-260.8034 172.0315,-256.3895"/>
<text text-anchor="middle" x="209.125" y="-235.8" font-family="Times,serif" font-size="14.00" fill="#000000">300000</text>
</g>
<!-- Device off[199999] -->
<g id="node8" class="node">
<title>Device off[199999]</title>
<ellipse fill="none" stroke="#000000" cx="259.125" cy="-106.8" rx="87.5" ry="18"/>
<text text-anchor="middle" x="259.125" y="-102.6" font-family="Times,serif" font-size="14.00" fill="#000000">Device off[199999]</text>
</g>
<!-- Work complete[799999]&#45;&gt;Device off[199999] -->
<g id="edge6" class="edge">
<title>Work complete[799999]&#45;&gt;Device off[199999]</title>
<path fill="none" stroke="#000000" d="M205.6835,-177.63C215.4006,-164.7512 228.6371,-147.2078 239.5057,-132.803"/>
<polygon fill="#000000" stroke="#000000" points="242.3577,-134.8341 245.5867,-124.7433 236.7698,-130.6179 242.3577,-134.8341"/>
<text text-anchor="middle" x="253.125" y="-147" font-family="Times,serif" font-size="14.00" fill="#000000">100000</text>
</g>
<!-- [0] -->
<g id="node7" class="node">
<title>[0]</title>
<ellipse fill="none" stroke="#000000" cx="323.125" cy="-639.6" rx="27" ry="18"/>
<text text-anchor="middle" x="323.125" y="-635.4" font-family="Times,serif" font-size="14.00" fill="#000000">[0]</text>
</g>
<!-- Device off[199999]&#45;&gt;Device on[199999] -->
<g id="edge7" class="edge">
<title>Device off[199999]&#45;&gt;Device on[199999]</title>
<path fill="none" stroke="#000000" d="M283.3136,-124.3246C302.5049,-140.4435 326.125,-166.2449 326.125,-195.6 326.125,-462 326.125,-462 326.125,-462 326.125,-490.7413 302.5781,-513.4096 279.7077,-528.6481"/>
<polygon fill="#000000" stroke="#000000" points="277.6184,-525.8278 271.026,-534.1219 281.3517,-531.7491 277.6184,-525.8278"/>
<text text-anchor="middle" x="343.625" y="-324.6" font-family="Times,serif" font-size="14.00" fill="#000000">99999</text>
</g>
<!-- End[1] -->
<g id="node9" class="node">
<title>End[1]</title>
<ellipse fill="none" stroke="#000000" cx="259.125" cy="-18" rx="38" ry="18"/>
<text text-anchor="middle" x="259.125" y="-13.8" font-family="Times,serif" font-size="14.00" fill="#000000">End[1]</text>
</g>
<!-- Device off[199999]&#45;&gt;End[1] -->
<g id="edge1" class="edge">
<title>Device off[199999]&#45;&gt;End[1]</title>
<path fill="none" stroke="#000000" d="M259.125,-88.4006C259.125,-76.2949 259.125,-60.2076 259.125,-46.4674"/>
<polygon fill="#000000" stroke="#000000" points="262.6251,-46.072 259.125,-36.072 255.6251,-46.0721 262.6251,-46.072"/>
<text text-anchor="middle" x="262.625" y="-58.2" font-family="Times,serif" font-size="14.00" fill="#000000">1</text>
</g>
</g>
</svg>
