<?xml version="1.0" standalone="no"?>
<!DOCTYPE svg PUBLIC "-//W3C//DTD SVG 20010904//EN"
 "http://www.w3.org/TR/2001/REC-SVG-20010904/DTD/svg10.dtd">
<svg version="1.0" xmlns="http://www.w3.org/2000/svg"
 width="512.000000pt" height="512.000000pt" viewBox="0 0 512.000000 512.000000"
 preserveAspectRatio="xMidYMid meet">
<metadata>
Created by potrace 1.14, written by Peter Selinger 2001-2017
</metadata>
<g transform="translate(0.000000,512.000000) scale(0.100000,-0.100000)"
fill="#000000" stroke="none">
<path d="M4395 4799 c-22 -12 -200 -110 -395 -219 -195 -108 -386 -214 -425
-235 -38 -21 -86 -48 -105 -60 -19 -12 -45 -25 -57 -29 -13 -4 -23 -10 -23
-14 0 -4 85 -59 189 -122 105 -62 188 -116 187 -119 -21 -39 -292 -489 -301
-499 -13 -14 38 -25 -739 169 l-448 112 -570 -569 c-313 -313 -583 -587 -601
-608 -25 -31 -31 -48 -31 -86 0 -56 32 -113 76 -136 40 -21 112 -20 146 2 15
9 263 253 551 541 356 355 530 522 540 518 24 -7 290 -74 314 -79 12 -2 29 -7
37 -10 8 -3 26 -8 40 -10 14 -3 70 -16 124 -31 55 -14 109 -27 120 -30 12 -2
46 -11 78 -19 31 -8 67 -17 80 -20 12 -2 88 -21 168 -41 80 -20 152 -39 160
-41 8 -2 33 -8 55 -13 22 -6 40 -9 41 -8 0 1 92 155 204 342 111 187 208 345
214 352 8 9 40 -6 131 -62 66 -41 127 -78 135 -82 8 -3 39 -21 68 -40 28 -18
53 -32 53 -30 3 6 7 134 13 537 5 239 9 486 10 548 1 61 2 112 2 112 -1 0 -19
-10 -41 -21z"/>
<path d="M299 4047 c-25 -13 -52 -36 -64 -57 -20 -35 -20 -47 -21 -1862 l-1
-1828 36 -1 c20 0 1049 0 2286 0 1432 -1 2259 3 2275 9 37 14 78 60 89 97 19
70 -4 128 -69 172 l-33 23 -2135 0 c-1175 0 -2138 3 -2141 6 -3 3 -6 758 -6
1677 -1 1863 5 1711 -69 1756 -51 32 -95 34 -147 8z"/>
<path d="M3984 3191 l-149 -246 -1 -1023 -2 -1022 302 2 301 3 0 1175 0 1175
-151 91 -151 92 -149 -247z"/>
<path d="M2244 2896 l-221 -221 1 -885 1 -885 300 -3 301 -2 -1 1087 0 1087
-80 22 -81 21 -220 -221z"/>
<path d="M2929 2958 c0 -54 0 -2040 0 -2050 1 -5 136 -8 301 -8 l300 0 0 975
c0 536 -2 975 -5 975 -2 0 -111 27 -242 60 -131 33 -247 62 -258 65 -11 2 -36
9 -55 14 -19 6 -36 11 -37 11 -2 0 -3 -19 -4 -42z"/>
<path d="M1699 2352 c-9 -9 -84 -82 -168 -162 -379 -359 -411 -390 -412 -409
-1 -21 -1 -840 0 -864 1 -16 21 -17 301 -17 275 1 300 2 301 18 2 93 0 1444
-3 1447 -2 3 -11 -3 -19 -13z"/>
</g>
</svg>
